<?xml version="1.0" encoding="UTF-8"?>
<svg width="1200pt" height="1200pt" version="1.1" viewBox="0 0 1200 1200" xmlns="http://www.w3.org/2000/svg">
 <g>
  <path d="m726.56 672.09c0-129.3-162.64-259.29-363.29-259.29-200.65-0.011719-363.27 129.97-363.27 259.29 0 121.98 144.77 247.31 329.62 258.25 15.254 24.145 40.32 57.238 74.363 80.746 61.871 42.84 155.38 54.516 161.12 49.453 9.4062-10.066-36.996-16.152-88.465-67.586-20.82-20.832-32.676-46.766-38.809-66.527 164.88-22.18 288.73-141.5 288.73-254.34z"/>
  <path d="m943.51 729.46c-141.66 0-256.48 98.004-256.48 189.28 0 79.68 87.434 170.14 203.86 185.8-4.332 13.957-12.707 32.258-27.406 46.957-36.336 36.324-69.109 40.621-62.449 47.734 4.0547 3.5742 70.055-4.6562 113.75-34.906 24.047-16.609 41.746-39.984 52.523-57.012 130.48-7.7344 232.7-102.45 232.7-188.56 0-91.281-114.82-189.29-256.49-189.29z"/>
  <path d="m828.24 465.74c0 57-69.742 87.742-65.258 98.258 12.742 13.5 131.26-18.742 148.89-96.168 161.57-9.5742 288.12-126.84 288.12-233.47 0-113.02-142.16-234.36-317.58-234.36-175.38 0-317.56 121.34-317.56 234.36 0 98.652 119.22 211.98 263.38 231.38z"/>
 </g>
</svg>
